<svg width="30" height="30" fill="none" xmlns="http://www.w3.org/2000/svg">
    <g clip-path="url(#a)" fill="#000">
        <path d="M24.3 25.584H5.704a1.7 1.7 0 0 1-1.7-1.7V8.73a1.705 1.705 0 0 1 1.7-1.706h18.6a1.706 1.706 0 0 1 1.7 1.706v15.168a1.7 1.7 0 0 1-1.706 1.686zM5.704 8.396a.339.339 0 0 0-.334.334v15.168a.334.334 0 0 0 .334.33h18.6a.334.334 0 0 0 .334-.33V8.73a.34.34 0 0 0-.334-.334h-18.6z"/>
        <path d="M10.906 8.695a.963.963 0 0 1-.917.997.957.957 0 0 1-.918-.997V6.002a.962.962 0 0 1 .918-.997.962.962 0 0 1 .917.997v2.693zM21.103 8.695a.957.957 0 0 1-.917.997.957.957 0 0 1-.918-.997V6.002a.963.963 0 0 1 .918-.997.963.963 0 0 1 .917.997v2.693zM16.003 8.695a.959.959 0 0 1-.918.997.963.963 0 0 1-.917-.997V6.002a.962.962 0 0 1 .917-.997.962.962 0 0 1 .918.997v2.693zM25.122 11.702H4.877a.683.683 0 1 1 0-1.367h20.245a.683.683 0 0 1 0 1.367zM11.066 13.377h-1.84v1.84h1.84v-1.84zM16.007 13.377h-1.84v1.84h1.84v-1.84zM21.099 13.377h-1.84v1.84h1.84v-1.84zM11.066 16.728h-1.84v1.84h1.84v-1.84zM16.007 16.728h-1.84v1.84h1.84v-1.84zM21.099 16.728h-1.84v1.84h1.84v-1.84zM11.066 19.979h-1.84v1.84h1.84v-1.84zM16.007 19.979h-1.84v1.84h1.84v-1.84zM21.099 19.979h-1.84v1.84h1.84v-1.84z"/>
    </g>
    <defs>
        <clipPath id="a">
            <path fill="#fff" transform="translate(4 5)" d="M0 0h22v20.594H0z"/>
        </clipPath>
    </defs>
</svg>
